HIERARCHY
ROOT WRIST
{
	OFFSET 0.000000 0.000000 0.000000
	CHANNELS 6 Xposition Yposition Zposition Yrotation Xrotation Zrotation
	JOINT THUMB_CMC_FE
	{
		OFFSET 0.225143 0.117753 -0.062308
		CHANNELS 3 Yrotation Xrotation Zrotation
		JOINT THUMB_CMC_AA
		{
			OFFSET 0.212856 -0.150507 0.098851
			CHANNELS 3 Yrotation Xrotation Zrotation
			JOINT THUMB_MCP_FE
			{
				OFFSET -0.322503 -0.167445 -0.031436
				CHANNELS 3 Yrotation Xrotation Zrotation
				JOINT THUMB_IP_FE
				{
					OFFSET 0.295233 -0.236404 0.025845
					CHANNELS 3 Yrotation Xrotation Zrotation
					End Site
					{
						OFFSET 0.000000 0.000000 0.000000
					}
				}
			}
		}
	}
	JOINT INDEX_MCP
	{
		OFFSET 1.076913 0.264198 -0.014768
		CHANNELS 3 Yrotation Xrotation Zrotation
		JOINT INDEX_PIP_FE
		{
			OFFSET 0.425053 0.013289 0.013619
			CHANNELS 3 Yrotation Xrotation Zrotation
			JOINT INDEX_DIP_FE
			{
				OFFSET 0.271505 -0.024898 0.000550
				CHANNELS 3 Yrotation Xrotation Zrotation
				End Site
				{
					OFFSET 0.000000 0.000000 0.000000
				}
			}
		}
	}
	JOINT MIDDLE_MCP
	{
		OFFSET 1.072991 0.019362 0.038780
		CHANNELS 3 Yrotation Xrotation Zrotation
		JOINT MIDDLE_PIP_FE
		{
			OFFSET 0.480704 0.002618 0.028696
			CHANNELS 3 Yrotation Xrotation Zrotation
			JOINT MIDDLE_DIP_FE
			{
				OFFSET 0.307486 -0.031129 -0.000643
				CHANNELS 3 Yrotation Xrotation Zrotation
				End Site
				{
					OFFSET 0.000000 0.000000 0.000000
				}
			}
		}
	}
	JOINT RING_MCP
	{
		OFFSET 0.994992 -0.195930 -0.005938
		CHANNELS 3 Yrotation Xrotation Zrotation
		JOINT RING_PIP_FE
		{
			OFFSET 0.436995 0.003792 0.019994
			CHANNELS 3 Yrotation Xrotation Zrotation
			JOINT RING_DIP_FE
			{
				OFFSET 0.295558 -0.038341 -0.006642
				CHANNELS 3 Yrotation Xrotation Zrotation
				End Site
				{
					OFFSET 0.000000 0.000000 0.000000
				}
			}
		}
	}
	JOINT PINKY_MCP
	{
		OFFSET 0.873858 -0.393246 -0.086282
		CHANNELS 3 Yrotation Xrotation Zrotation
		JOINT PINKY_PIP_FE
		{
			OFFSET 0.343972 -0.016492 0.013445
			CHANNELS 3 Yrotation Xrotation Zrotation
			JOINT PINKY_DIP_FE
			{
				OFFSET 0.224713 -0.036309 -0.010265
				CHANNELS 3 Yrotation Xrotation Zrotation
				End Site
				{
					OFFSET 0.000000 0.000000 0.000000
				}
			}
		}
	}
}
MOTION
Frames: 8
Frame Time: 0.008333334
3.687658 3.291271 6.911025 91.654680 -68.884950 -19.154170 61.461190 4.834472 71.320210 119.352900 -30.976960 1.749524 -112.863900 -65.843260 -62.195680 4.562089 -8.459839 -13.424650 -156.075900 3.065628 173.319700 -41.978420 -86.125610 47.700370 -2.052643 1.705005 -37.711240 178.744500 -0.642578 -172.058300 -39.240660 -88.411320 30.485930 -6.002502 4.395453 4.744929 161.553300 -0.769104 -167.266100 -31.479340 -85.617830 3.416438 0.199299 0.562930 4.586536 155.256200 -4.157562 -160.008000 -48.977540 -83.530580 31.246740 5.539803 0.809164 -15.340550 
3.686187 3.290141 6.912140 91.748050 -68.834930 -19.341030 61.461190 4.834465 71.286810 119.352900 -30.976930 1.610087 -112.864000 -65.843230 -61.962740 4.562092 -8.459839 -13.683410 -156.077200 3.065679 173.320100 -41.978180 -86.125550 47.700340 -2.052612 1.704981 -37.711270 178.779300 -0.645996 -172.100100 -39.240720 -88.411320 30.859500 -6.002533 4.395446 4.794011 161.553300 -0.769104 -167.308000 -31.479490 -85.617830 3.664087 0.199320 0.562924 4.230477 155.308700 -4.178650 -160.127800 -48.977630 -83.530640 31.323510 5.539814 0.809179 -15.280150 
3.684086 3.287550 6.913064 91.280390 -68.651980 -18.945710 61.461180 4.834476 71.358760 119.352900 -30.976930 1.970398 -112.863900 -65.843200 -62.605160 4.562096 -8.459839 -15.117370 -156.076500 3.065657 173.318700 -41.978150 -86.125610 47.700390 -2.052643 1.705008 -37.711270 178.985400 -0.666382 -171.963000 -39.241000 -88.411190 31.089550 -6.002533 4.395455 4.637394 161.553300 -0.769104 -167.209800 -31.479400 -85.617740 3.419250 0.199301 0.562935 4.365417 155.233100 -4.148224 -160.023000 -48.977630 -83.530640 31.128470 5.539810 0.809169 -14.632570 
3.682451 3.284520 6.914529 90.931170 -68.632140 -18.629430 61.461190 4.834460 71.199830 119.352900 -30.976930 1.602010 -112.863900 -65.843260 -61.776580 4.562079 -8.459839 -14.268620 -156.077600 3.065692 173.319000 -41.978240 -86.125610 47.700900 -2.052612 1.705005 -37.711240 179.214500 -0.689026 -171.841200 -39.240780 -88.411320 31.250070 -6.002533 4.395446 4.434272 161.553300 -0.769104 -167.041500 -31.479490 -85.617740 2.998555 0.199318 0.562933 4.521571 155.212400 -4.139893 -159.821900 -48.977390 -83.530610 30.709860 5.539801 0.809182 -14.247220 
3.681145 3.281795 6.915934 90.640430 -68.546570 -18.384090 61.461190 4.834463 71.357120 119.352900 -30.976930 1.871293 -112.864000 -65.843200 -62.085020 4.562092 -8.459869 -14.832370 -156.078500 3.065717 173.318900 -41.978150 -86.125670 47.700980 -2.052612 1.704997 -37.711270 179.311000 -0.698578 -171.748800 -39.241090 -88.411440 30.819450 -6.002533 4.395463 4.773636 161.553300 -0.769104 -166.967000 -31.479550 -85.617740 2.647088 0.199297 0.562918 4.442874 155.271500 -4.163696 -159.870100 -48.977450 -83.530580 31.034380 5.539810 0.809181 -14.589540 
3.678701 3.280832 6.916775 90.490320 -68.397770 -18.323030 61.461190 4.834466 71.242580 119.352900 -30.976960 1.817556 -112.863900 -65.843260 -61.990330 4.562119 -8.459839 -14.859010 -156.079400 3.065739 173.319300 -41.978120 -86.125670 47.701130 -2.052643 1.704999 -37.711240 179.385900 -0.705963 -171.754700 -39.240840 -88.411320 30.596070 -6.002502 4.395447 4.863836 161.553300 -0.769104 -166.985000 -31.479520 -85.617830 2.501380 0.199327 0.562921 4.629714 155.095000 -4.092651 -159.702900 -48.977660 -83.530610 30.598320 5.539799 0.809188 -14.477450 
3.675625 3.279245 6.916414 90.763170 -68.658510 -18.786960 61.461190 4.834476 71.672150 119.352900 -30.976930 1.657711 -112.863900 -65.843260 -62.027650 4.562105 -8.459839 -15.391170 -156.044100 3.064748 173.506600 -41.978360 -86.125670 49.719290 -2.052612 1.704989 -37.891420 179.321200 -0.699585 -171.961300 -39.240720 -88.411190 30.245940 -6.002502 4.395445 5.204802 161.553300 -0.769104 -167.217800 -31.479580 -85.617740 1.909176 0.199301 0.562928 4.842569 155.311800 -4.179901 -159.963500 -48.977420 -83.530580 30.729710 5.539787 0.809191 -14.702510 
3.673361 3.277581 6.917166 90.655890 -68.661410 -18.726350 61.461200 4.834460 71.571590 119.352900 -30.976930 1.490115 -112.863900 -65.843230 -61.719570 4.562082 -8.459839 -15.669190 -156.145200 3.067576 173.428400 -41.978360 -86.125670 49.868550 -2.052643 1.705003 -38.116300 179.190800 -0.686707 -171.875400 -39.240780 -88.411560 29.719120 -6.002502 4.395447 5.204802 161.553300 -0.769104 -167.146400 -31.479680 -85.617680 1.984546 0.199317 0.562928 4.843783 155.269300 -4.162781 -159.866600 -48.977540 -83.530640 30.494710 5.539795 0.809170 -14.219880 
